<svg xmlns="http://www.w3.org/2000/svg" width="100" height="100" viewBox="0 0 100 100">
  <defs>
    <linearGradient id="grad" x1="0%" y1="0%" x2="100%" y2="100%">
      <stop offset="0%" stop-color="#f59e0b"/>
      <stop offset="100%" stop-color="#ec4899"/>
    </linearGradient>
  </defs>
  <!-- Rounded square background matching the sidebar component -->
  <rect width="100" height="100" rx="22" fill="url(#grad)"/>
  <!-- Lucide Scale icon, centered at 46×46 within the 100×100 canvas -->
  <svg x="27" y="27" width="46" height="46" viewBox="0 0 24 24"
       stroke="white" stroke-width="2" stroke-linecap="round"
       stroke-linejoin="round" fill="none">
    <path d="M12 3v18"/>
    <path d="m19 8 3 8a5 5 0 0 1-6 0zV7"/>
    <path d="M3 7h1a17 17 0 0 0 8-2 17 17 0 0 0 8 2h1"/>
    <path d="m5 8 3 8a5 5 0 0 1-6 0zV7"/>
    <path d="M7 21h10"/>
  </svg>
</svg>
